<svg xmlns="http://www.w3.org/2000/svg" width="38" height="40" viewBox="0 0 38 40"><g><g><g><path fill="#ff820f" d="M38 20.117c0 10.807-8.507 19.567-19 19.567S0 30.924 0 20.117C0 9.311 8.507.55 19 .55s19 8.76 19 19.567z"/></g><g><g><path fill="#fff" d="M17.852 25.172c-1.807-.2-3.437-.671-4.832-1.828-.173-.144-.352-.283-.51-.444-.61-.621-.672-1.333-.189-2.067.414-.628 1.107-.796 1.829-.436.14.07.273.157.4.251 2.6 1.894 6.172 1.946 8.782.085.26-.21.536-.381.856-.469.623-.17 1.204.073 1.538.651.382.66.377 1.304-.093 1.816-.722.786-1.59 1.354-2.555 1.75-.912.375-1.91.564-2.9.69.15.171.22.256.313.355 1.343 1.43 2.691 2.854 4.03 4.289.455.488.55 1.094.3 1.663-.275.621-.89 1.03-1.492.986-.382-.028-.68-.23-.944-.512-1.013-1.08-2.045-2.141-3.038-3.243-.288-.32-.427-.26-.682.019a209.757 209.757 0 0 1-3.097 3.296c-.468.49-1.025.577-1.567.298-.577-.296-.944-.92-.916-1.548.02-.424.217-.748.491-1.039 1.329-1.406 2.654-2.816 3.98-4.225.087-.093.169-.193.296-.338z"/></g><g><path fill="#fff" d="M18.95 20.27c-3.225-.011-5.869-2.845-5.85-6.269.019-3.461 2.664-6.25 5.92-6.241 3.263.01 5.882 2.839 5.866 6.336-.017 3.417-2.68 6.186-5.936 6.174zm2.93-6.26c-.005-1.7-1.283-3.054-2.883-3.055-1.614-.002-2.902 1.376-2.89 3.091.012 1.694 1.3 3.038 2.905 3.031 1.6-.006 2.874-1.368 2.868-3.067z"/></g></g></g></g></svg>