<svg xmlns="http://www.w3.org/2000/svg" width="38" height="40" viewBox="0 0 38 40"><g><g><g><path fill="#00b2ff" d="M38 20.117c0 10.807-8.507 19.567-19 19.567S0 30.924 0 20.117C0 9.311 8.507.55 19 .55s19 8.76 19 19.567z"/></g><g><path fill="#fff" d="M31.5 12.258c-.93.414-1.92.688-2.953.821a5.156 5.156 0 0 0 2.255-2.872 10.158 10.158 0 0 1-3.25 1.258 5.103 5.103 0 0 0-3.744-1.645c-2.838 0-5.122 2.335-5.122 5.198 0 .412.034.808.119 1.185-4.261-.21-8.032-2.281-10.564-5.436a5.288 5.288 0 0 0-.702 2.627c0 1.8.914 3.396 2.277 4.32a5.008 5.008 0 0 1-2.316-.64v.056c0 2.526 1.777 4.624 4.106 5.107a5.047 5.047 0 0 1-1.344.17c-.328 0-.659-.018-.97-.088.664 2.058 2.549 3.571 4.79 3.62a10.208 10.208 0 0 1-6.355 2.217c-.42 0-.824-.019-1.227-.071a14.284 14.284 0 0 0 7.863 2.332c9.43 0 14.587-7.922 14.587-14.789 0-.23-.008-.451-.019-.671a10.305 10.305 0 0 0 2.569-2.699z"/></g></g></g></svg>