<svg xmlns="http://www.w3.org/2000/svg" width="38" height="40" viewBox="0 0 38 40"><g><g><g><path fill="#2472ff" d="M38 20.117c0 10.807-8.507 19.567-19 19.567S0 30.924 0 20.117C0 9.311 8.507.55 19 .55s19 8.76 19 19.567z"/></g><g><path fill="#fff" d="M30.873 25.52a1.566 1.566 0 0 0-.082-.152c-.416-.733-1.212-1.633-2.386-2.7l-.025-.025-.012-.012-.013-.012h-.013c-.533-.497-.87-.83-1.012-1.002-.258-.326-.316-.655-.175-.99.1-.252.475-.785 1.125-1.6.341-.432.612-.778.812-1.038 1.441-1.874 2.066-3.07 1.874-3.592l-.074-.122c-.05-.073-.18-.14-.387-.202-.209-.06-.475-.07-.8-.03l-3.599.024a.477.477 0 0 0-.25.006l-.163.037-.062.03-.05.037a.551.551 0 0 0-.137.129.83.83 0 0 0-.125.213 19.75 19.75 0 0 1-1.337 2.75c-.308.504-.592.942-.85 1.313-.258.37-.475.643-.65.818a4.501 4.501 0 0 1-.475.422c-.141.106-.25.15-.324.134a9.384 9.384 0 0 1-.213-.049.82.82 0 0 1-.281-.3 1.318 1.318 0 0 1-.144-.476 5.127 5.127 0 0 1-.044-.495c-.003-.138-.002-.334.007-.586.008-.253.012-.424.012-.513 0-.31.007-.646.019-1.008l.031-.861c.009-.212.013-.436.013-.672 0-.237-.015-.422-.044-.556a1.87 1.87 0 0 0-.131-.391.662.662 0 0 0-.256-.294 1.464 1.464 0 0 0-.419-.165c-.441-.097-1.004-.15-1.687-.158-1.55-.017-2.545.081-2.986.293-.175.09-.334.212-.475.366-.15.18-.171.278-.063.294.5.073.854.248 1.062.525l.075.147c.059.105.117.293.175.562.059.268.096.566.113.891a9.299 9.299 0 0 1 0 1.528c-.042.423-.081.753-.119.99a1.948 1.948 0 0 1-.169.573 2.405 2.405 0 0 1-.15.27.213.213 0 0 1-.062.06.955.955 0 0 1-.337.061c-.117 0-.259-.057-.425-.17a2.973 2.973 0 0 1-.519-.471c-.179-.2-.38-.479-.606-.837a14.502 14.502 0 0 1-.7-1.27l-.2-.355a30.23 30.23 0 0 1-.512-.996 18.986 18.986 0 0 1-.575-1.264.808.808 0 0 0-.3-.391l-.062-.037a.862.862 0 0 0-.2-.104 1.35 1.35 0 0 0-.287-.08l-3.424.025c-.35 0-.587.078-.712.232l-.05.074a.388.388 0 0 0-.038.195c0 .09.025.2.075.33a39.936 39.936 0 0 0 1.63 3.323c.588 1.067 1.098 1.927 1.531 2.578.433.652.875 1.267 1.325 1.845.45.578.748.949.893 1.111.146.164.26.286.344.367l.312.293c.2.196.494.43.881.703.388.273.817.541 1.287.806.471.265 1.019.48 1.644.648a5.807 5.807 0 0 0 1.824.201h1.437c.292-.024.512-.114.662-.269l.05-.06a.802.802 0 0 0 .094-.227c.029-.101.044-.214.044-.336-.009-.35.018-.665.08-.946.063-.281.134-.493.213-.636a1.564 1.564 0 0 1 .482-.537.82.82 0 0 1 .1-.043c.2-.065.434-.002.705.19.271.191.525.428.763.708.237.282.522.597.856.947.333.35.624.61.874.782l.25.147c.167.098.384.187.65.269.266.081.5.101.7.06l3.199-.048c.316 0 .562-.051.737-.153.175-.102.279-.214.312-.336a.926.926 0 0 0 .007-.416 1.501 1.501 0 0 0-.088-.323z"/></g></g></g></svg>