<svg xmlns="http://www.w3.org/2000/svg" width="38" height="40" viewBox="0 0 38 40"><g><g><g><path fill="#1f3da4" d="M38 20.117c0 10.807-8.507 19.567-19 19.567S0 30.924 0 20.117C0 9.311 8.507.55 19 .55s19 8.76 19 19.567z"/></g><g><path fill="#fff" d="M24.548 7.765L21.67 7.76c-3.234 0-5.323 2.387-5.323 6.083v2.804h-2.894c-.25 0-.453.226-.453.505v4.063c0 .278.203.504.453.504h2.894v10.253c0 .279.202.504.452.504h3.776c.25 0 .452-.225.452-.504V21.72h3.384c.25 0 .453-.226.453-.504l.001-4.063a.535.535 0 0 0-.132-.357.43.43 0 0 0-.32-.148h-3.386V14.27c0-1.143.245-1.723 1.582-1.723h1.939c.25 0 .452-.226.452-.505V8.27c0-.278-.202-.503-.452-.504z"/></g></g></g></svg>