<svg xmlns="http://www.w3.org/2000/svg" width="38" height="40" viewBox="0 0 38 40"><defs><linearGradient id="3ulka" x1="38" x2="0" y1=".55" y2="39.68" gradientUnits="userSpaceOnUse"><stop offset="0" stop-color="#2400ff"/><stop offset=".53" stop-color="#ff005c"/><stop offset="1" stop-color="#ffb800"/></linearGradient></defs><g><g><g><path fill="url(#3ulka)" d="M38 20.117c0 10.807-8.507 19.567-19 19.567S0 30.924 0 20.117C0 9.311 8.507.55 19 .55s19 8.76 19 19.567z"/></g><g><g><path fill="#fff" d="M23.586 9.82c2.985 0 5.414 2.501 5.414 5.575v9.447c0 3.074-2.429 5.575-5.414 5.575h-9.172C11.429 30.417 9 27.916 9 24.842v-9.447c0-3.074 2.429-5.575 5.414-5.575zm.883 10.299c0-3.106-2.454-5.632-5.469-5.632s-5.469 2.526-5.469 5.631c0 3.106 2.454 5.632 5.469 5.632s5.469-2.526 5.469-5.631zm1.746-5.968c0-.918-.725-1.665-1.616-1.665-.89 0-1.616.747-1.616 1.665 0 .917.725 1.664 1.616 1.664.891 0 1.616-.747 1.616-1.664z"/></g><g><path fill="#fff" d="M18.996 15.7c-2.369 0-4.296 1.985-4.296 4.424 0 2.44 1.927 4.425 4.296 4.425s4.296-1.985 4.296-4.425c0-2.44-1.927-4.424-4.296-4.424z"/></g><g><path fill="#fff" d="M24.603 13.69a.45.45 0 0 0-.443.457.45.45 0 0 0 .443.456.45.45 0 0 0 .444-.456.45.45 0 0 0-.444-.457z"/></g></g></g></g></svg>