<svg xmlns="http://www.w3.org/2000/svg" width="38" height="40" viewBox="0 0 38 40"><g><g><g><path fill="#0087d2" d="M38 20.117c0 10.807-8.507 19.567-19 19.567S0 30.924 0 20.117C0 9.311 8.507.55 19 .55s19 8.76 19 19.567z"/></g><g><path fill="#fff" d="M16.417 23.395l-.397 5.75c.568 0 .814-.25 1.11-.552l2.662-2.621 5.518 4.161c1.012.581 1.725.275 1.998-.959l3.622-17.478.001-.001c.321-1.54-.54-2.143-1.527-1.765l-21.29 8.394c-1.453.58-1.43 1.415-.247 1.793l5.443 1.743 12.643-8.147c.595-.406 1.136-.181.691.225z"/></g></g></g></svg>