<svg xmlns="http://www.w3.org/2000/svg" width="16" height="16" viewBox="0 0 16 16"><g><g><path fill="#afabca" d="M15.42 11.391A4.614 4.614 0 0 1 10.811 16a4.586 4.586 0 0 1-2.814-.962A4.592 4.592 0 0 1 5.179 16 4.614 4.614 0 0 1 .57 11.391a4.614 4.614 0 0 1 4.834-4.603 8.11 8.11 0 0 1 1.263-1.881l-.064.001a2.65 2.65 0 0 1-1.117-.245C3.544 3.77 2.89.727 2.862.598L2.757.093 3.27.036C3.401.022 6.5-.298 7.948 1.273c.493.534.735 1.21.725 2.012 1.12-.646 2.435-1.066 3.914-1.246l.114.93c-.607.075-1.18.19-1.716.347-.567 1.35-.568 2.55-.39 3.472a4.614 4.614 0 0 1 4.825 4.604zM7.704 3.685c.105-.757-.042-1.34-.445-1.777-.766-.83-2.36-.986-3.336-.971.253.825.86 2.373 1.956 2.875.54.247 1.139.206 1.825-.127zM6.38 6.94c.585.157 1.134.43 1.618.804a4.595 4.595 0 0 1 1.669-.818 6.808 6.808 0 0 1 .175-3.193A7.195 7.195 0 0 0 6.38 6.941zm.929 7.441a4.588 4.588 0 0 1-1.105-2.99c0-1.141.416-2.186 1.105-2.991a3.65 3.65 0 0 0-1.326-.592c-.272.71-.337 1.208-.338 1.216l-.93-.115c.004-.034.065-.504.301-1.186a3.676 3.676 0 0 0-3.508 3.667 3.675 3.675 0 0 0 3.672 3.671c.77 0 1.51-.239 2.129-.68zm7.175-2.99a3.675 3.675 0 0 0-3.626-3.671c.228.608.48.961.486.97l-.757.553c-.019-.025-.391-.543-.684-1.41a3.678 3.678 0 0 0-2.762 3.557 3.675 3.675 0 0 0 3.671 3.671 3.676 3.676 0 0 0 3.672-3.67z"/></g></g></svg>