<svg width="18" height="18" viewBox="0 0 18 18" fill="none" xmlns="http://www.w3.org/2000/svg">
<path d="M10.5992 14.8666V13.5333C10.5992 13.4256 10.5344 13.3283 10.4347 13.2869C10.335 13.2459 10.2206 13.2685 10.144 13.3448L9.61068 13.8781C9.5064 13.9824 9.5064 14.1509 9.61068 14.2552C9.71469 14.3595 9.8835 14.3595 9.98776 14.2552L10.0659 14.1771V14.8666C9.91841 14.8666 9.79922 14.9861 9.79922 15.1333C9.79922 15.2805 9.91841 15.3999 10.0659 15.3999H10.5992C10.7464 15.3999 10.8659 15.2805 10.8659 15.1333C10.8659 14.9861 10.7465 14.8666 10.5992 14.8666Z" fill="#AFABCA"/>
<path d="M3.39929 6.33385V5.00055C3.39929 4.89283 3.33448 4.79549 3.23447 4.75415C3.13475 4.71281 3.02034 4.73574 2.94406 4.81202L2.41073 5.34535C2.30645 5.44963 2.30645 5.61815 2.41073 5.7224C2.51474 5.82668 2.68355 5.82668 2.78781 5.7224L2.86593 5.64428V6.33385C2.71846 6.33385 2.59927 6.45331 2.59927 6.6005C2.59927 6.74768 2.71846 6.86714 2.86593 6.86714H3.39929C3.54648 6.86714 3.66595 6.74768 3.66595 6.6005C3.66595 6.45331 3.54651 6.33385 3.39929 6.33385Z" fill="#AFABCA"/>
<path d="M10.9782 2.77812L7.94978 1.67579C7.94976 1.67578 7.94973 1.67577 7.94971 1.67576C7.77488 1.61229 7.58749 1.62072 7.42015 1.69902L7.41996 1.69911C7.25206 1.77724 7.12537 1.91555 7.06215 2.08952L7.06081 2.09323L7.06073 2.0932L6.89379 2.50172L6.89367 2.50201C6.82778 2.66183 6.6594 2.75142 6.49321 2.72447L6.49233 2.72433L6.49233 2.72432L4.98588 2.46621L4.98524 2.4661C4.80044 2.4332 4.61502 2.47454 4.46084 2.58189C4.30773 2.68929 4.20597 2.84947 4.17351 3.03378L4.17338 3.03453L4.17337 3.03453L4.09392 3.46643L4.0939 3.46652L3.99555 3.44842L10.9782 2.77812ZM10.9782 2.77812L7.97118 2.24785L7.97116 2.24785C7.77155 2.2127 7.58145 2.34566 7.54651 2.54528M10.9782 2.77812L11.5669 15.6734V15.6667V4.46705C11.5669 4.08123 11.2528 3.76707 10.8669 3.76707H4.73317C4.5304 3.76707 4.3665 3.60277 4.3665 3.40042C4.3665 3.19808 4.5304 3.03378 4.73317 3.03378H8.20458L7.84364 2.97014L7.84363 2.97014C7.64424 2.93496 7.51106 2.74475 7.54651 2.54528M7.54651 2.54528C7.54652 2.5452 7.54654 2.54512 7.54655 2.54505L7.645 2.56261L7.54649 2.5454C7.54649 2.54536 7.5465 2.54532 7.54651 2.54528ZM12.3003 14.1498V4.46705C12.3003 4.19109 12.2198 3.93515 12.0838 3.71771L13.388 3.94767L13.3881 3.94768C13.7681 4.01462 14.023 4.37847 13.9563 4.75845L12.3003 14.1498ZM12.3003 14.1498L13.9563 4.75853L12.3003 14.1498ZM12.9341 14.7765L16.3251 5.46117L12.9341 14.7765ZM12.9341 14.7765L14.6783 4.88575L14.6783 4.88571C14.7273 4.60737 14.6903 4.3346 14.589 4.09221L15.9113 4.57355C16.2695 4.70397 16.4553 5.10228 16.3251 5.46109L12.9341 14.7765ZM16.1619 3.88457L16.1618 3.88456L8.20056 0.986529L8.20054 0.98652C7.84279 0.856396 7.45477 0.873607 7.11022 1.03438C6.7661 1.19471 6.50407 1.47966 6.37724 1.82713L6.32641 1.9518L5.11152 1.74357C5.11146 1.74356 5.11139 1.74355 5.11132 1.74354C4.73439 1.67744 4.35403 1.76178 4.04061 1.98118C3.72698 2.20055 3.5175 2.52952 3.45148 2.90439C3.45146 2.9045 3.45144 2.90461 3.45143 2.90471L3.42786 3.03375H2.33338C1.54295 3.03375 0.9 3.67662 0.9 4.46705V15.6667C0.9 16.4571 1.54292 17.1 2.33338 17.1H10.867H11.1336H11.4003C11.7657 17.1 12.1412 17.0738 12.4633 16.9438C12.7909 16.8116 13.0603 16.5731 13.2106 16.1607L13.2106 16.1606L17.0142 5.71162L17.0142 5.71158C17.2826 4.97305 16.9004 4.15361 16.1619 3.88457Z" fill="#AFABCA" stroke="#AFABCA" stroke-width="0.2"/>
<path d="M7.93924 8.68275C7.53842 8.35795 7.12403 8.02196 6.82856 7.52973C6.73227 7.3692 6.46773 7.3692 6.3712 7.52973C6.06719 8.03665 5.68159 8.37798 5.30851 8.70782C4.73837 9.21233 4.19995 9.68885 4.19995 10.6003C4.19995 11.3355 4.79809 11.9336 5.53333 11.9336C5.89094 11.9336 6.14082 11.8397 6.33335 11.6885V12.4669C6.33335 12.6141 6.45254 12.7336 6.60002 12.7336C6.74721 12.7336 6.86668 12.6141 6.86668 12.4669V11.6885C7.05897 11.8397 7.3091 11.9336 7.6667 11.9336C8.32753 11.9336 8.83661 11.4427 8.99474 10.6526C9.18675 9.69366 8.55257 9.1798 7.93924 8.68275ZM8.47179 10.548C8.43179 10.748 8.2555 11.4003 7.6667 11.4003C7.23069 11.4003 7.09122 11.2534 6.8384 10.7478C6.82587 10.723 6.80987 10.7014 6.79093 10.6824C6.78693 10.6779 6.78158 10.675 6.77733 10.6707C6.7584 10.6539 6.73815 10.6403 6.71574 10.6294C6.70802 10.6257 6.70055 10.6222 6.69227 10.619C6.66293 10.608 6.63227 10.6003 6.59999 10.6003C6.5677 10.6003 6.5368 10.608 6.5077 10.619C6.49942 10.6222 6.4917 10.6256 6.48398 10.6294C6.46158 10.6403 6.44133 10.6539 6.42292 10.6707C6.41811 10.675 6.41304 10.6779 6.40879 10.6824C6.39014 10.7016 6.37361 10.723 6.36132 10.7478C6.1085 11.2534 5.96903 11.4003 5.5333 11.4003C5.09194 11.4003 4.73328 11.0414 4.73328 10.6003C4.73328 9.92915 5.12288 9.58435 5.66212 9.1073C5.96666 8.83772 6.3032 8.53985 6.60242 8.1404C6.91043 8.53532 7.27416 8.83025 7.60326 9.09718C8.25844 9.62807 8.59473 9.9339 8.47179 10.548Z" fill="#AFABCA"/>
</svg>
