<svg width="20" height="16" viewBox="0 0 20 16" fill="none" xmlns="http://www.w3.org/2000/svg">
<path d="M0.0527935 8.22792C1.71854 5.04732 4.45696 3.10241 7.66662 2.742C9.27581 0.574096 14.3251 0.024891 14.543 0.00226615C14.685 -0.0133588 14.8279 0.0525992 14.9149 0.17589C15.0024 0.298306 15.024 0.460597 14.9719 0.604262C14.4768 1.97492 13.9697 3.53395 13.8355 4.17178C14.7524 4.61932 15.5538 5.09523 16.0705 5.49182C17.1912 3.57949 19.4787 3.55562 19.5833 3.55562C19.8136 3.55562 20 3.75441 20 4.00007C20 6.57514 19.1585 7.86767 18.5958 8.4445C19.1585 9.02129 20 10.3138 20 12.8889C20 13.1346 19.8136 13.3333 19.5833 13.3333C19.4787 13.3333 17.1911 13.3095 16.0705 11.3972C15.3841 11.9241 14.1972 12.5904 12.9002 13.1443C13.1868 13.6387 13.3333 14.4252 13.3333 15.5555C13.3333 15.8012 13.1469 16 12.9166 16C12.7927 16 9.95925 15.9738 8.54815 14.2082C4.95946 14.1343 1.86929 12.1294 0.0527935 8.66105C-0.0175972 8.5265 -0.0175972 8.36246 0.0527935 8.22792ZM13.949 0.975802C12.5489 1.19197 10.2504 1.7238 8.95151 2.67575C10.1492 2.72567 11.6773 3.20866 13.0626 3.81474C13.247 3.0335 13.6563 1.81296 13.949 0.975802ZM12.4902 15.0855C12.4347 13.8492 12.1673 13.5333 12.0923 13.4686C11.2803 13.7726 10.4577 14.0142 9.71069 14.1354C10.6146 14.8138 11.8467 15.0249 12.4902 15.0855ZM12.1407 13.4523L12.1405 13.4511C12.1394 13.4515 12.1382 13.4518 12.1371 13.4523C12.1395 13.4519 12.1382 13.4526 12.1407 13.4523ZM8.74995 13.3333C11.1848 13.3333 15.166 11.201 15.9033 10.3963C15.9822 10.3099 16.0901 10.2626 16.2012 10.2626C16.2264 10.2626 16.252 10.2652 16.2772 10.27C16.4136 10.2969 16.5287 10.395 16.5837 10.5308C17.146 11.9219 18.4684 12.3016 19.1557 12.4054C19.0255 9.62025 17.7897 8.87592 17.7262 8.83988C17.5891 8.7648 17.5045 8.6133 17.5024 8.44884C17.5004 8.28259 17.5879 8.12767 17.7258 8.04955C17.7816 8.01788 19.0247 7.27872 19.1557 4.4862C18.4689 4.5934 17.1415 4.97882 16.5837 6.35814C16.5287 6.49398 16.4136 6.5921 16.2772 6.61897C16.1397 6.64631 16.0001 6.59856 15.9033 6.49268C15.166 5.68798 11.1848 3.55562 8.74995 3.55562C5.46012 3.55562 2.61058 5.33382 0.896704 8.44446C2.61058 11.5552 5.46012 13.3333 8.74995 13.3333Z" fill="#AFABCA"/>
<path d="M7.49993 8.44439C7.49993 6.39928 6.74348 5.14666 6.73575 5.13408C6.60961 4.9292 6.6625 4.65404 6.85375 4.51862C7.045 4.38408 7.30297 4.43921 7.42993 4.64233C7.46696 4.70137 8.33325 6.11453 8.33325 8.44439C8.33325 10.7743 7.46696 12.1874 7.42993 12.2464C7.34977 12.3749 7.2175 12.4444 7.08286 12.4444C7.00352 12.4444 6.92336 12.4201 6.85215 12.3697C6.66051 12.2334 6.60883 11.9578 6.73661 11.7534C6.7443 11.7413 7.49993 10.5082 7.49993 8.44439Z" fill="#AFABCA"/>
<path d="M8.52038 4.51887C8.71202 4.38433 8.96921 4.43945 9.09655 4.64258C9.13358 4.70157 9.99988 6.11477 9.99988 8.44459C9.99988 9.68895 9.74843 10.6668 9.53722 11.2679C9.47456 11.4463 9.31585 11.5565 9.14698 11.5565C9.09854 11.5565 9.04893 11.5474 9.00089 11.5283C8.78522 11.4424 8.67616 11.1863 8.75674 10.9563C8.9435 10.4237 9.16651 9.55566 9.16651 8.44459C9.16651 6.39948 8.41006 5.14686 8.40233 5.13428C8.27623 4.92945 8.32912 4.65428 8.52038 4.51887Z" fill="#AFABCA"/>
<path d="M4.99993 7.99991C4.5397 7.99991 4.1666 7.60195 4.1666 7.11104C4.1666 6.62013 4.5397 6.22217 4.99993 6.22217C5.46016 6.22217 5.83325 6.62013 5.83325 7.11104C5.83325 7.60195 5.46016 7.99991 4.99993 7.99991Z" fill="#AFABCA"/>
</svg>
