<svg width="15" height="18" viewBox="0 0 15 18" fill="none" xmlns="http://www.w3.org/2000/svg">
<mask id="path-1-outside-1" maskUnits="userSpaceOnUse" x="0" y="0" width="15" height="18" fill="black">
<rect fill="white" width="15" height="18"/>
<path d="M11.6288 12.7358C11.8926 12.5146 12.1405 12.2714 12.3697 12.0075C13.421 10.797 14 9.23937 14 7.62143C14 3.9704 11.0841 1 7.5 1C3.91586 1 1 3.9704 1 7.62131C1 9.21712 1.56505 10.7586 2.59106 11.9619C2.81782 12.2277 3.06379 12.4733 3.32584 12.6969L1.52219 16.5523C1.47681 16.6493 1.48342 16.7631 1.53972 16.854C1.59602 16.945 1.69409 17 1.79961 17H3.08744C3.17747 17 3.26282 16.9595 3.32128 16.8897C3.37962 16.82 3.40495 16.7273 3.39079 16.6367C3.36582 16.4772 3.22573 16.3657 3.07159 16.3739H2.28639L3.82559 13.084C3.83639 13.0916 3.84743 13.0987 3.85836 13.1062C4.39531 13.4766 4.98701 13.7652 5.60763 13.9572C5.7889 14.0133 5.97269 14.0614 6.15815 14.1011C6.16956 14.1036 6.18084 14.1063 6.19225 14.1087L5.99189 14.8784H5.27787C5.10813 14.8784 4.97056 15.0185 4.97056 15.1914C4.97056 15.3643 5.10813 15.5045 5.27787 15.5045H9.58492C9.75466 15.5045 9.89223 15.3643 9.89223 15.1914C9.89223 15.0185 9.75466 14.8784 9.58492 14.8784H8.8805L8.68975 14.1321C8.70056 14.1301 8.71124 14.1277 8.72204 14.1256C9.38168 13.9976 10.0209 13.764 10.6104 13.4364C10.776 13.3444 10.9374 13.2448 11.0946 13.1385C11.1048 13.1315 11.1152 13.1249 11.1254 13.118L12.6121 16.3739H5.87821C5.87317 16.3737 5.86813 16.3735 5.86297 16.3735C5.69322 16.3735 5.55565 16.514 5.55565 16.687C5.55565 16.8599 5.69322 17 5.86297 17H13.0939C13.1989 17 13.2967 16.9455 13.3531 16.8552C13.4095 16.7651 13.4168 16.6519 13.3727 16.5549L11.6288 12.7358ZM3.05515 11.5513C2.12613 10.462 1.61462 9.06634 1.61462 7.62131C1.61462 4.31561 4.25474 1.62609 7.5 1.62609C10.7453 1.62609 13.3854 4.31561 13.3854 7.62131C13.3854 9.08639 12.8611 10.4967 11.9093 11.5926C11.6465 11.8951 11.3565 12.1676 11.0446 12.4076C10.493 12.8322 9.86786 13.1567 9.20606 13.3606C9.01915 13.4182 8.82948 13.4666 8.63789 13.5048C8.60344 13.5116 8.56887 13.5176 8.53442 13.5238L8.39565 12.9806C9.91912 12.6992 11.2678 11.7392 12.0507 10.3607C12.0515 10.3594 12.0522 10.3578 12.0529 10.3564C12.5171 9.53762 12.7625 8.60288 12.7625 7.65286C12.7625 6.701 12.5163 5.76455 12.0505 4.94464C12.0505 4.94451 12.0504 4.94439 12.0503 4.94427C11.5913 4.13646 10.9316 3.45889 10.1422 2.98491C9.32838 2.49627 8.39637 2.238 7.44682 2.238C6.49728 2.238 5.56526 2.49627 4.7516 2.98491C3.96196 3.45889 3.30208 4.13658 2.84315 4.94451C2.84315 4.94464 2.84303 4.94464 2.84291 4.94476C2.3775 5.76467 2.13141 6.70112 2.13141 7.65286C2.13141 8.60435 2.3775 9.54068 2.84291 10.3606C2.84315 10.3611 2.84351 10.3613 2.84363 10.3618C3.62451 11.7356 4.9684 12.6943 6.48647 12.9784L6.35034 13.5017C6.32261 13.4961 6.295 13.4908 6.26751 13.4848C5.64473 13.3495 5.04247 13.1098 4.49567 12.7772C4.33997 12.6825 4.18824 12.5813 4.04154 12.4727C3.99833 12.4408 3.95571 12.408 3.91346 12.3749C3.60315 12.1318 3.31528 11.8564 3.05515 11.5513ZM6.62788 14.8784L7.44418 11.7431L8.24547 14.8784H6.62788ZM7.75425 10.4708V9.54337C8.2025 9.46719 8.61112 9.22678 8.90043 8.86934L11.3559 10.3133C10.639 11.4029 9.50569 12.1528 8.24043 12.3733L7.75425 10.4708ZM11.6636 9.77131L9.20798 8.32726C9.28697 8.11277 9.32802 7.8841 9.32802 7.65286C9.32802 7.42162 9.28697 7.19295 9.20798 6.97846L11.6636 5.53417C11.9811 6.18973 12.1478 6.91598 12.1478 7.65286C12.1478 8.3895 11.9811 9.11562 11.6636 9.77131ZM8.90019 6.43638C8.611 6.07894 8.20226 5.83853 7.75413 5.76247V2.87425C8.48676 2.92292 9.19874 3.14511 9.83005 3.52419C10.4401 3.89055 10.9627 4.39424 11.3558 4.9922L8.90019 6.43638ZM8.54402 7.00781C8.69503 7.2514 8.74125 7.57117 8.69828 7.8523C8.65662 8.12451 8.52829 8.37923 8.33526 8.57207C7.97717 8.92999 7.43158 9.04078 6.96713 8.84647C6.4663 8.63676 6.14435 8.11167 6.18336 7.56029C6.22142 7.02261 6.59607 6.55707 7.10482 6.41094C7.59027 6.2713 8.12435 6.44897 8.4385 6.85043C8.47752 6.90008 8.51269 6.95278 8.54402 7.00781ZM7.13951 5.76247C6.69127 5.83865 6.28252 6.07894 5.99333 6.4365L3.53784 4.9922C3.93086 4.39424 4.45353 3.89055 5.06372 3.52419C5.69502 3.14523 6.407 2.92304 7.13951 2.87425V5.76247ZM3.23017 5.53417L5.68566 6.97846C5.60655 7.19295 5.5655 7.42162 5.5655 7.65286C5.5655 7.88398 5.60655 8.11265 5.68566 8.32713L3.23017 9.77118C2.91265 9.1155 2.74603 8.38938 2.74603 7.65286C2.74603 6.9161 2.91265 6.18985 3.23017 5.53417ZM5.99345 8.86934C6.28264 9.22678 6.69139 9.46719 7.13963 9.54337V10.4693L6.64445 12.3717C5.38303 12.1492 4.25306 11.4 3.53796 10.3133L5.99345 8.86934Z"/>
</mask>
<path d="M11.6288 12.7358C11.8926 12.5146 12.1405 12.2714 12.3697 12.0075C13.421 10.797 14 9.23937 14 7.62143C14 3.9704 11.0841 1 7.5 1C3.91586 1 1 3.9704 1 7.62131C1 9.21712 1.56505 10.7586 2.59106 11.9619C2.81782 12.2277 3.06379 12.4733 3.32584 12.6969L1.52219 16.5523C1.47681 16.6493 1.48342 16.7631 1.53972 16.854C1.59602 16.945 1.69409 17 1.79961 17H3.08744C3.17747 17 3.26282 16.9595 3.32128 16.8897C3.37962 16.82 3.40495 16.7273 3.39079 16.6367C3.36582 16.4772 3.22573 16.3657 3.07159 16.3739H2.28639L3.82559 13.084C3.83639 13.0916 3.84743 13.0987 3.85836 13.1062C4.39531 13.4766 4.98701 13.7652 5.60763 13.9572C5.7889 14.0133 5.97269 14.0614 6.15815 14.1011C6.16956 14.1036 6.18084 14.1063 6.19225 14.1087L5.99189 14.8784H5.27787C5.10813 14.8784 4.97056 15.0185 4.97056 15.1914C4.97056 15.3643 5.10813 15.5045 5.27787 15.5045H9.58492C9.75466 15.5045 9.89223 15.3643 9.89223 15.1914C9.89223 15.0185 9.75466 14.8784 9.58492 14.8784H8.8805L8.68975 14.1321C8.70056 14.1301 8.71124 14.1277 8.72204 14.1256C9.38168 13.9976 10.0209 13.764 10.6104 13.4364C10.776 13.3444 10.9374 13.2448 11.0946 13.1385C11.1048 13.1315 11.1152 13.1249 11.1254 13.118L12.6121 16.3739H5.87821C5.87317 16.3737 5.86813 16.3735 5.86297 16.3735C5.69322 16.3735 5.55565 16.514 5.55565 16.687C5.55565 16.8599 5.69322 17 5.86297 17H13.0939C13.1989 17 13.2967 16.9455 13.3531 16.8552C13.4095 16.7651 13.4168 16.6519 13.3727 16.5549L11.6288 12.7358ZM3.05515 11.5513C2.12613 10.462 1.61462 9.06634 1.61462 7.62131C1.61462 4.31561 4.25474 1.62609 7.5 1.62609C10.7453 1.62609 13.3854 4.31561 13.3854 7.62131C13.3854 9.08639 12.8611 10.4967 11.9093 11.5926C11.6465 11.8951 11.3565 12.1676 11.0446 12.4076C10.493 12.8322 9.86786 13.1567 9.20606 13.3606C9.01915 13.4182 8.82948 13.4666 8.63789 13.5048C8.60344 13.5116 8.56887 13.5176 8.53442 13.5238L8.39565 12.9806C9.91912 12.6992 11.2678 11.7392 12.0507 10.3607C12.0515 10.3594 12.0522 10.3578 12.0529 10.3564C12.5171 9.53762 12.7625 8.60288 12.7625 7.65286C12.7625 6.701 12.5163 5.76455 12.0505 4.94464C12.0505 4.94451 12.0504 4.94439 12.0503 4.94427C11.5913 4.13646 10.9316 3.45889 10.1422 2.98491C9.32838 2.49627 8.39637 2.238 7.44682 2.238C6.49728 2.238 5.56526 2.49627 4.7516 2.98491C3.96196 3.45889 3.30208 4.13658 2.84315 4.94451C2.84315 4.94464 2.84303 4.94464 2.84291 4.94476C2.3775 5.76467 2.13141 6.70112 2.13141 7.65286C2.13141 8.60435 2.3775 9.54068 2.84291 10.3606C2.84315 10.3611 2.84351 10.3613 2.84363 10.3618C3.62451 11.7356 4.9684 12.6943 6.48647 12.9784L6.35034 13.5017C6.32261 13.4961 6.295 13.4908 6.26751 13.4848C5.64473 13.3495 5.04247 13.1098 4.49567 12.7772C4.33997 12.6825 4.18824 12.5813 4.04154 12.4727C3.99833 12.4408 3.95571 12.408 3.91346 12.3749C3.60315 12.1318 3.31528 11.8564 3.05515 11.5513ZM6.62788 14.8784L7.44418 11.7431L8.24547 14.8784H6.62788ZM7.75425 10.4708V9.54337C8.2025 9.46719 8.61112 9.22678 8.90043 8.86934L11.3559 10.3133C10.639 11.4029 9.50569 12.1528 8.24043 12.3733L7.75425 10.4708ZM11.6636 9.77131L9.20798 8.32726C9.28697 8.11277 9.32802 7.8841 9.32802 7.65286C9.32802 7.42162 9.28697 7.19295 9.20798 6.97846L11.6636 5.53417C11.9811 6.18973 12.1478 6.91598 12.1478 7.65286C12.1478 8.3895 11.9811 9.11562 11.6636 9.77131ZM8.90019 6.43638C8.611 6.07894 8.20226 5.83853 7.75413 5.76247V2.87425C8.48676 2.92292 9.19874 3.14511 9.83005 3.52419C10.4401 3.89055 10.9627 4.39424 11.3558 4.9922L8.90019 6.43638ZM8.54402 7.00781C8.69503 7.2514 8.74125 7.57117 8.69828 7.8523C8.65662 8.12451 8.52829 8.37923 8.33526 8.57207C7.97717 8.92999 7.43158 9.04078 6.96713 8.84647C6.4663 8.63676 6.14435 8.11167 6.18336 7.56029C6.22142 7.02261 6.59607 6.55707 7.10482 6.41094C7.59027 6.2713 8.12435 6.44897 8.4385 6.85043C8.47752 6.90008 8.51269 6.95278 8.54402 7.00781ZM7.13951 5.76247C6.69127 5.83865 6.28252 6.07894 5.99333 6.4365L3.53784 4.9922C3.93086 4.39424 4.45353 3.89055 5.06372 3.52419C5.69502 3.14523 6.407 2.92304 7.13951 2.87425V5.76247ZM3.23017 5.53417L5.68566 6.97846C5.60655 7.19295 5.5655 7.42162 5.5655 7.65286C5.5655 7.88398 5.60655 8.11265 5.68566 8.32713L3.23017 9.77118C2.91265 9.1155 2.74603 8.38938 2.74603 7.65286C2.74603 6.9161 2.91265 6.18985 3.23017 5.53417ZM5.99345 8.86934C6.28264 9.22678 6.69139 9.46719 7.13963 9.54337V10.4693L6.64445 12.3717C5.38303 12.1492 4.25306 11.4 3.53796 10.3133L5.99345 8.86934Z" fill="#AFABCA"/>
<path d="M11.6288 12.7358C11.8926 12.5146 12.1405 12.2714 12.3697 12.0075C13.421 10.797 14 9.23937 14 7.62143C14 3.9704 11.0841 1 7.5 1C3.91586 1 1 3.9704 1 7.62131C1 9.21712 1.56505 10.7586 2.59106 11.9619C2.81782 12.2277 3.06379 12.4733 3.32584 12.6969L1.52219 16.5523C1.47681 16.6493 1.48342 16.7631 1.53972 16.854C1.59602 16.945 1.69409 17 1.79961 17H3.08744C3.17747 17 3.26282 16.9595 3.32128 16.8897C3.37962 16.82 3.40495 16.7273 3.39079 16.6367C3.36582 16.4772 3.22573 16.3657 3.07159 16.3739H2.28639L3.82559 13.084C3.83639 13.0916 3.84743 13.0987 3.85836 13.1062C4.39531 13.4766 4.98701 13.7652 5.60763 13.9572C5.7889 14.0133 5.97269 14.0614 6.15815 14.1011C6.16956 14.1036 6.18084 14.1063 6.19225 14.1087L5.99189 14.8784H5.27787C5.10813 14.8784 4.97056 15.0185 4.97056 15.1914C4.97056 15.3643 5.10813 15.5045 5.27787 15.5045H9.58492C9.75466 15.5045 9.89223 15.3643 9.89223 15.1914C9.89223 15.0185 9.75466 14.8784 9.58492 14.8784H8.8805L8.68975 14.1321C8.70056 14.1301 8.71124 14.1277 8.72204 14.1256C9.38168 13.9976 10.0209 13.764 10.6104 13.4364C10.776 13.3444 10.9374 13.2448 11.0946 13.1385C11.1048 13.1315 11.1152 13.1249 11.1254 13.118L12.6121 16.3739H5.87821C5.87317 16.3737 5.86813 16.3735 5.86297 16.3735C5.69322 16.3735 5.55565 16.514 5.55565 16.687C5.55565 16.8599 5.69322 17 5.86297 17H13.0939C13.1989 17 13.2967 16.9455 13.3531 16.8552C13.4095 16.7651 13.4168 16.6519 13.3727 16.5549L11.6288 12.7358ZM3.05515 11.5513C2.12613 10.462 1.61462 9.06634 1.61462 7.62131C1.61462 4.31561 4.25474 1.62609 7.5 1.62609C10.7453 1.62609 13.3854 4.31561 13.3854 7.62131C13.3854 9.08639 12.8611 10.4967 11.9093 11.5926C11.6465 11.8951 11.3565 12.1676 11.0446 12.4076C10.493 12.8322 9.86786 13.1567 9.20606 13.3606C9.01915 13.4182 8.82948 13.4666 8.63789 13.5048C8.60344 13.5116 8.56887 13.5176 8.53442 13.5238L8.39565 12.9806C9.91912 12.6992 11.2678 11.7392 12.0507 10.3607C12.0515 10.3594 12.0522 10.3578 12.0529 10.3564C12.5171 9.53762 12.7625 8.60288 12.7625 7.65286C12.7625 6.701 12.5163 5.76455 12.0505 4.94464C12.0505 4.94451 12.0504 4.94439 12.0503 4.94427C11.5913 4.13646 10.9316 3.45889 10.1422 2.98491C9.32838 2.49627 8.39637 2.238 7.44682 2.238C6.49728 2.238 5.56526 2.49627 4.7516 2.98491C3.96196 3.45889 3.30208 4.13658 2.84315 4.94451C2.84315 4.94464 2.84303 4.94464 2.84291 4.94476C2.3775 5.76467 2.13141 6.70112 2.13141 7.65286C2.13141 8.60435 2.3775 9.54068 2.84291 10.3606C2.84315 10.3611 2.84351 10.3613 2.84363 10.3618C3.62451 11.7356 4.9684 12.6943 6.48647 12.9784L6.35034 13.5017C6.32261 13.4961 6.295 13.4908 6.26751 13.4848C5.64473 13.3495 5.04247 13.1098 4.49567 12.7772C4.33997 12.6825 4.18824 12.5813 4.04154 12.4727C3.99833 12.4408 3.95571 12.408 3.91346 12.3749C3.60315 12.1318 3.31528 11.8564 3.05515 11.5513ZM6.62788 14.8784L7.44418 11.7431L8.24547 14.8784H6.62788ZM7.75425 10.4708V9.54337C8.2025 9.46719 8.61112 9.22678 8.90043 8.86934L11.3559 10.3133C10.639 11.4029 9.50569 12.1528 8.24043 12.3733L7.75425 10.4708ZM11.6636 9.77131L9.20798 8.32726C9.28697 8.11277 9.32802 7.8841 9.32802 7.65286C9.32802 7.42162 9.28697 7.19295 9.20798 6.97846L11.6636 5.53417C11.9811 6.18973 12.1478 6.91598 12.1478 7.65286C12.1478 8.3895 11.9811 9.11562 11.6636 9.77131ZM8.90019 6.43638C8.611 6.07894 8.20226 5.83853 7.75413 5.76247V2.87425C8.48676 2.92292 9.19874 3.14511 9.83005 3.52419C10.4401 3.89055 10.9627 4.39424 11.3558 4.9922L8.90019 6.43638ZM8.54402 7.00781C8.69503 7.2514 8.74125 7.57117 8.69828 7.8523C8.65662 8.12451 8.52829 8.37923 8.33526 8.57207C7.97717 8.92999 7.43158 9.04078 6.96713 8.84647C6.4663 8.63676 6.14435 8.11167 6.18336 7.56029C6.22142 7.02261 6.59607 6.55707 7.10482 6.41094C7.59027 6.2713 8.12435 6.44897 8.4385 6.85043C8.47752 6.90008 8.51269 6.95278 8.54402 7.00781ZM7.13951 5.76247C6.69127 5.83865 6.28252 6.07894 5.99333 6.4365L3.53784 4.9922C3.93086 4.39424 4.45353 3.89055 5.06372 3.52419C5.69502 3.14523 6.407 2.92304 7.13951 2.87425V5.76247ZM3.23017 5.53417L5.68566 6.97846C5.60655 7.19295 5.5655 7.42162 5.5655 7.65286C5.5655 7.88398 5.60655 8.11265 5.68566 8.32713L3.23017 9.77118C2.91265 9.1155 2.74603 8.38938 2.74603 7.65286C2.74603 6.9161 2.91265 6.18985 3.23017 5.53417ZM5.99345 8.86934C6.28264 9.22678 6.69139 9.46719 7.13963 9.54337V10.4693L6.64445 12.3717C5.38303 12.1492 4.25306 11.4 3.53796 10.3133L5.99345 8.86934Z" stroke="#AFABCA" stroke-width="0.2" mask="url(#path-1-outside-1)"/>
</svg>
