<svg xmlns="http://www.w3.org/2000/svg" width="15" height="16" viewBox="0 0 15 16"><defs><clipPath id="t5jsa"><path fill="#fff" d="M6.95 16.117V8.883h8.1v7.234zm5.721-6.997c-.55 0-1.08.225-1.463.614a2.064 2.064 0 0 0-1.463-.614 2.06 2.06 0 0 0-2.055 2.061c0 .588.405 1.375 1.237 2.405l.363-.294c-.936-1.16-1.133-1.788-1.133-2.111 0-.878.713-1.593 1.588-1.593.508 0 .973.235 1.276.644l.187.252.188-.252a1.574 1.574 0 0 1 1.275-.644c.876 0 1.588.715 1.588 1.593 0 1.084-2.071 3.24-3.05 4.152-.3-.281-.98-.94-1.623-1.686l-.354.306c.531.617 1.23 1.34 1.976 2.014 1.042-.943 3.518-3.381 3.518-4.786a2.06 2.06 0 0 0-2.055-2.061z"/></clipPath><clipPath id="t5jsb"><path fill="#fff" d="M6.9 9.1V-.1h8.2v9.2zm2.594-2.132c.567 0 1.1-.237 1.485-.63V7.6h-.908v.468h2.283v-.468h-.908V6.337c.384.394.918.631 1.485.631a2.08 2.08 0 0 0 .22-4.148A2.083 2.083 0 0 0 11.211 0a2.08 2.08 0 0 0-1.938 2.82 2.08 2.08 0 0 0 .22 4.148zm0-3.69c.08 0 .1.003.596.044l-.244-.395A1.61 1.61 0 0 1 11.213.469a1.61 1.61 0 0 1 1.366 2.458l-.244.395c.456-.038.511-.045.596-.045a1.61 1.61 0 0 1 0 3.223c-.66 0-1.264-.416-1.5-1.035l-.219-.57-.218.57a1.617 1.617 0 0 1-1.5 1.035 1.61 1.61 0 0 1 0-3.223z"/></clipPath><clipPath id="t5jsc"><path fill="#fff" d="M-.127 16.162V8.838h7.254v7.324zM.7 12.535l2.722 3.464 2.723-3.464L3.422 9.07zm2.722 2.707l-2.127-2.707 2.127-2.708 2.128 2.708z"/></clipPath><clipPath id="t5jsd"><path fill="#fff" d="M-.1 9.113V-.113h7.2v9.226zM3.42.01C2.196.947.096 2.885.005 4.423c-.061 1.03.356 1.605.716 1.906.393.327.803.406.82.409.055.01.136.012.193.012.301 0 .914-.077 1.45-.63v1.482h-.907v.469H4.56v-.469h-.908V6.12c.727.748 1.593.626 1.637.619l.006-.001c.017-.003.428-.081.82-.41.361-.3.778-.875.717-1.905C6.742 2.885 4.642.947 3.419.01zm1.796 6.266a1.402 1.402 0 0 1-.552-.064c-.434-.135-.783-.446-1.039-.924l-.206-.386-.205.386c-.583 1.09-1.51.999-1.59.988-.095-.02-1.243-.29-1.152-1.825C.558 3.013 2.824 1.086 3.42.604c.596.482 2.862 2.41 2.948 3.847.09 1.54-1.066 1.808-1.151 1.825z"/></clipPath></defs><g><g><path fill="#afabca" d="M12.671 9.12c-.55 0-1.08.225-1.463.614a2.064 2.064 0 0 0-1.463-.614 2.06 2.06 0 0 0-2.055 2.061c0 .588.405 1.375 1.237 2.405l.363-.294c-.936-1.16-1.133-1.788-1.133-2.111 0-.878.713-1.593 1.588-1.593.508 0 .973.235 1.276.644l.187.252.188-.252a1.574 1.574 0 0 1 1.275-.644c.876 0 1.588.715 1.588 1.593 0 1.084-2.071 3.24-3.05 4.152-.3-.281-.98-.94-1.623-1.686l-.354.306c.531.617 1.23 1.34 1.976 2.014 1.042-.943 3.518-3.381 3.518-4.786a2.06 2.06 0 0 0-2.055-2.061z"/><path fill="none" stroke="#afabca" stroke-miterlimit="20" stroke-width=".2" d="M12.671 9.12c-.55 0-1.08.225-1.463.614a2.064 2.064 0 0 0-1.463-.614 2.06 2.06 0 0 0-2.055 2.061c0 .588.405 1.375 1.237 2.405l.363-.294c-.936-1.16-1.133-1.788-1.133-2.111 0-.878.713-1.593 1.588-1.593.508 0 .973.235 1.276.644l.187.252v0l.188-.252a1.574 1.574 0 0 1 1.275-.644c.876 0 1.588.715 1.588 1.593 0 1.084-2.071 3.24-3.05 4.152-.3-.281-.98-.94-1.623-1.686l-.354.306c.531.617 1.23 1.34 1.976 2.014 1.042-.943 3.518-3.381 3.518-4.786a2.06 2.06 0 0 0-2.055-2.061z" clip-path="url(&quot;#t5jsa&quot;)"/></g><g><path fill="#afabca" d="M7.42 4.888a2.08 2.08 0 0 1 1.854-2.067A2.08 2.08 0 0 1 11.212 0a2.08 2.08 0 0 1 1.938 2.82 2.08 2.08 0 0 1-.22 4.147c-.566 0-1.1-.237-1.484-.63V7.6h.908v.468h-2.283v-.468h.908V6.337c-.384.394-.918.631-1.485.631a2.08 2.08 0 0 1-2.074-2.08zm.467 0c0 .889.721 1.612 1.607 1.612.66 0 1.264-.416 1.5-1.035l.218-.57.218.57c.237.619.84 1.035 1.5 1.035a1.61 1.61 0 0 0 0-3.223c-.084 0-.139.007-.595.045l.244-.395A1.61 1.61 0 0 0 11.212.469a1.61 1.61 0 0 0-1.366 2.458l.244.395c-.496-.041-.515-.045-.596-.045a1.61 1.61 0 0 0-1.607 1.611z"/><path fill="none" stroke="#afabca" stroke-miterlimit="20" stroke-width=".2" d="M7.42 4.888a2.08 2.08 0 0 1 1.854-2.067A2.08 2.08 0 0 1 11.212 0a2.08 2.08 0 0 1 1.938 2.82 2.08 2.08 0 0 1-.22 4.147c-.566 0-1.1-.237-1.484-.63V7.6h.908v.468h-2.283v-.468h.908V6.337c-.384.394-.918.631-1.485.631a2.08 2.08 0 0 1-2.074-2.08zm.467 0c0 .889.721 1.612 1.607 1.612.66 0 1.264-.416 1.5-1.035l.218-.57.218.57c.237.619.84 1.035 1.5 1.035a1.61 1.61 0 0 0 0-3.223c-.084 0-.139.007-.595.045l.244-.395A1.61 1.61 0 0 0 11.212.469a1.61 1.61 0 0 0-1.366 2.458l.244.395c-.496-.041-.515-.045-.596-.045a1.61 1.61 0 0 0-1.607 1.611z" clip-path="url(&quot;#t5jsb&quot;)"/></g><g><path fill="#afabca" d="M3.422 9.07l2.723 3.465-2.723 3.464L.7 12.535zm2.128 3.465L3.422 9.827l-2.127 2.708 2.127 2.707z"/><path fill="none" stroke="#afabca" stroke-miterlimit="20" stroke-width=".2" d="M3.422 9.07l2.723 3.465-2.723 3.464L.7 12.535zm2.128 3.465L3.422 9.827l-2.127 2.708 2.127 2.707z" clip-path="url(&quot;#t5jsc&quot;)"/></g><g><path fill="#afabca" d="M6.833 4.423c.06 1.03-.356 1.605-.716 1.906a1.956 1.956 0 0 1-.82.409H5.29c-.044.008-.91.13-1.637-.618v1.482h.908v.469H2.278v-.469h.908V6.12c-.537.553-1.15.63-1.451.63-.057 0-.138-.003-.192-.012a1.957 1.957 0 0 1-.82-.41c-.361-.3-.778-.875-.717-1.905C.097 2.885 2.197.947 3.419.01c1.223.937 3.323 2.875 3.414 4.413zm-.466.028C6.28 3.013 4.015 1.086 3.419.604 2.824 1.086.558 3.014.472 4.45.382 5.986 1.53 6.257 1.623 6.276c.08.01 1.008.103 1.59-.988l.206-.386.206.386c.256.478.605.789 1.04.924.293.092.523.068.55.064.086-.017 1.243-.285 1.152-1.825z"/><path fill="none" stroke="#afabca" stroke-miterlimit="20" stroke-width=".2" d="M6.833 4.423c.06 1.03-.356 1.605-.716 1.906a1.956 1.956 0 0 1-.82.409H5.29c-.044.008-.91.13-1.637-.618v1.482h.908v.469H2.278v-.469h.908V6.12c-.537.553-1.15.63-1.451.63-.057 0-.138-.003-.192-.012a1.957 1.957 0 0 1-.82-.41c-.361-.3-.778-.875-.717-1.905C.097 2.885 2.197.947 3.419.01c1.223.937 3.323 2.875 3.414 4.413zm-.466.028C6.28 3.013 4.015 1.086 3.419.604 2.824 1.086.558 3.014.472 4.45.382 5.986 1.53 6.257 1.623 6.276c.08.01 1.008.103 1.59-.988l.206-.386.206.386c.256.478.605.789 1.04.924.293.092.523.068.55.064.086-.017 1.243-.285 1.152-1.825z" clip-path="url(&quot;#t5jsd&quot;)"/></g></g></svg>