<svg xmlns="http://www.w3.org/2000/svg" width="16" height="17" viewBox="0 0 16 17"><defs><clipPath id="e5txa"><path fill="#fff" d="M.85 16.168V-.168h14.3v16.336zM8 0C5.498 1.86 1.2 5.706 1.012 8.76c-.125 2.044.729 3.185 1.467 3.783.803.65 1.644.805 1.68.812.11.018.276.024.392.024a4.2 4.2 0 0 0 2.97-1.25v2.941H5.664V16h4.674v-.93H8.478v-2.942c1.489 1.485 3.261 1.242 3.351 1.229l.013-.002a4.063 4.063 0 0 0 1.68-.812c.737-.598 1.59-1.739 1.466-3.782C14.8 5.706 10.503 1.86 8 0zm3.677 12.438a2.955 2.955 0 0 1-1.129-.127c-.888-.269-1.604-.886-2.126-1.835L8 9.71l-.421.765c-1.194 2.166-3.092 1.983-3.256 1.962-.193-.038-2.542-.577-2.356-3.622C2.142 5.96 6.78 2.136 8 1.179c1.219.957 5.859 4.782 6.033 7.637.187 3.057-2.18 3.588-2.356 3.622z"/></clipPath></defs><g><g><path fill="#afabca" d="M14.988 8.76c.125 2.044-.729 3.185-1.467 3.783a4.063 4.063 0 0 1-1.679.812l-.013.002c-.09.013-1.862.256-3.35-1.23v2.943h1.858V16H5.663v-.93h1.859v-2.942a4.2 4.2 0 0 1-2.97 1.251c-.117 0-.282-.006-.394-.024a4.064 4.064 0 0 1-1.68-.812c-.737-.598-1.59-1.739-1.466-3.782C1.2 5.706 5.498 1.86 8 0c2.503 1.86 6.8 5.706 6.988 8.76zm-.955.056C13.86 5.96 9.22 2.136 8 1.179c-1.219.957-5.858 4.782-6.033 7.637C1.78 11.86 4.13 12.4 4.323 12.439c.164.02 2.062.203 3.256-1.963L8 9.71l.422.765c.522.949 1.238 1.566 2.126 1.835a2.955 2.955 0 0 0 1.13.128c.174-.035 2.542-.566 2.355-3.623z"/><path fill="none" stroke="#afabca" stroke-miterlimit="20" stroke-width=".3" d="M14.988 8.76c.125 2.044-.729 3.185-1.467 3.783a4.063 4.063 0 0 1-1.679.812l-.013.002c-.09.013-1.862.256-3.35-1.23v2.943h1.858V16H5.663v-.93h1.859v-2.942a4.2 4.2 0 0 1-2.97 1.251c-.117 0-.282-.006-.394-.024a4.064 4.064 0 0 1-1.68-.812c-.737-.598-1.59-1.739-1.466-3.782C1.2 5.706 5.498 1.86 8 0c2.503 1.86 6.8 5.706 6.988 8.76zm-.955.056C13.86 5.96 9.22 2.136 8 1.179c-1.219.957-5.858 4.782-6.033 7.637C1.78 11.86 4.13 12.4 4.323 12.439c.164.02 2.062.203 3.256-1.963L8 9.71l.422.765c.522.949 1.238 1.566 2.126 1.835a2.955 2.955 0 0 0 1.13.128c.174-.035 2.542-.566 2.355-3.623z" clip-path="url(&quot;#e5txa&quot;)"/></g></g></svg>