<svg xmlns="http://www.w3.org/2000/svg" width="16" height="16" viewBox="0 0 16 16"><defs><clipPath id="lcyea"><path fill="#fff" d="M-.2 16.2V-.2h16.4v16.4zM8 .64A7.36 7.36 0 1 0 15.36 8 7.368 7.368 0 0 0 8 .64zm5.19 5.699l-2.688.895L8.245 5.43v-2.66l2.576-1.03A6.91 6.91 0 0 1 13.7 4.17zm-1.882 5.81l-1.325-1.75.675-2.699 2.657-.885 1.523 1.826a6.824 6.824 0 0 1-1.097 3.124zm-6.605.002l-2.444-.386A6.826 6.826 0 0 1 1.163 8.64l1.52-1.827 2.658.885.675 2.7zm-3.57-4.243c.013-1.094.289-2.17.805-3.135l.398 1.693zm5.341 2.3l-.65-2.606L8 5.861l2.177 1.742-.651 2.605zm7.19-3.743l.398-1.693c.516.966.792 2.041.805 3.136zM8 2.34l-2.164-.857a6.844 6.844 0 0 1 4.316-.004zm-.245.43v2.66L5.498 7.234 2.81 6.34 2.3 4.17a6.912 6.912 0 0 1 2.867-2.426zm-3.092 9.872l1.207 1.89a6.891 6.891 0 0 1-3.2-2.205zm1.91 2.078l-1.464-2.292L6.405 10.7h3.19l1.315 1.737-1.276 2.235a6.848 6.848 0 0 1-3.06.05zm4.788-2.082l1.97-.311a6.895 6.895 0 0 1-3.016 2.14z"/></clipPath></defs><g><g><g/><g><path fill="#afabca" d="M15.36 8A7.36 7.36 0 1 1 8 .64 7.368 7.368 0 0 1 15.36 8zM13.7 4.17a6.91 6.91 0 0 0-2.879-2.432l-2.576 1.03v2.66l2.257 1.806 2.688-.895zm.04 7.595a6.824 6.824 0 0 0 1.098-3.124l-1.523-1.826-2.657.885-.675 2.699 1.325 1.75zM6.017 10.4l-.675-2.7-2.657-.886L1.163 8.64a6.826 6.826 0 0 0 1.096 3.124l2.444.385zm-3.68-3.934l-.398-1.693a6.825 6.825 0 0 0-.805 3.135zm7.19 3.742l.651-2.605L8 5.86 5.823 7.602l.651 2.606zm5.341-2.3a6.825 6.825 0 0 0-.805-3.136l-.398 1.693zm-4.715-6.43a6.844 6.844 0 0 0-4.316.004L8 2.339zm-4.985.266A6.912 6.912 0 0 0 2.3 4.17l.51 2.169 2.688.895L7.755 5.43v-2.66zM2.669 12.326a6.891 6.891 0 0 0 3.2 2.204l-1.206-1.889zm3.904 2.394a6.848 6.848 0 0 0 3.061-.049l1.276-2.235-1.315-1.737h-3.19L5.11 12.427l1.464 2.292zm3.742-.253a6.895 6.895 0 0 0 3.017-2.141l-1.97.31z"/><path fill="none" stroke="#afabca" stroke-miterlimit="20" stroke-width=".4" d="M15.36 8A7.36 7.36 0 1 1 8 .64 7.368 7.368 0 0 1 15.36 8zM13.7 4.17a6.91 6.91 0 0 0-2.879-2.432l-2.576 1.03v2.66l2.257 1.806 2.688-.895zm.04 7.595a6.824 6.824 0 0 0 1.098-3.124l-1.523-1.826-2.657.885-.675 2.699 1.325 1.75zM6.017 10.4l-.675-2.7-2.657-.886L1.163 8.64a6.826 6.826 0 0 0 1.096 3.124l2.444.385zm-3.68-3.934l-.398-1.693a6.825 6.825 0 0 0-.805 3.135zm7.19 3.742l.651-2.605L8 5.86 5.823 7.602l.651 2.606zm5.341-2.3a6.825 6.825 0 0 0-.805-3.136l-.398 1.693zm-4.715-6.43a6.844 6.844 0 0 0-4.316.004L8 2.339zm-4.985.266A6.912 6.912 0 0 0 2.3 4.17l.51 2.169 2.688.895L7.755 5.43v-2.66zM2.669 12.326a6.891 6.891 0 0 0 3.2 2.204l-1.206-1.889zm3.904 2.394a6.848 6.848 0 0 0 3.061-.049l1.276-2.235-1.315-1.737h-3.19L5.11 12.427l1.464 2.292zm3.742-.253a6.895 6.895 0 0 0 3.017-2.141l-1.97.31z" clip-path="url(&quot;#lcyea&quot;)"/></g></g></g></svg>