<svg xmlns="http://www.w3.org/2000/svg" width="38" height="40" viewBox="0 0 38 40"><g><g><g><path fill="#8a7831" d="M38 19.787c0 10.807-8.507 19.567-19 19.567S0 30.594 0 19.787C0 8.981 8.507.22 19 .22s19 8.76 19 19.567z"/></g><g><path fill="#07062e" d="M28.935 20.033c0 1.719-.203 3.232-.608 4.538-.472 1.582-1.215 2.82-2.16 3.782-.743.757-1.688 1.307-2.903 1.72-.877.343-2.093.48-3.645.48h-7.764v-9.42H9.02V18.45h2.835V9.03h7.561c1.755 0 3.038.138 3.916.413 1.215.412 2.227 1.031 3.105 1.994.878.963 1.485 2.132 1.958 3.507.405 1.375.675 3.094.54 5.089zm-4.32-.207c0-1.719-.136-2.957-.406-3.85a5.441 5.441 0 0 0-1.147-2.064c-.473-.55-1.148-.825-1.89-1.031-.54-.138-1.688-.206-3.376-.206h-1.823v5.776h3.78v2.682h-3.78v5.776h3.106c1.147 0 1.957-.069 2.497-.206.676-.206 1.216-.481 1.688-.894.473-.413.81-1.1 1.08-2.063.27-.963.405-2.27.27-3.92z"/></g></g></g></svg>