<svg xmlns="http://www.w3.org/2000/svg" width="38" height="40" viewBox="0 0 38 40"><g><g><g><path fill="#47c947" d="M38 19.787c0 10.807-8.507 19.567-19 19.567S0 30.594 0 19.787C0 8.981 8.507.22 19 .22s19 8.76 19 19.567z"/></g><g><path fill="#07062e" d="M29.327 21.216c.204.767.136 1.603-.068 2.44-.272.836-.679 1.603-1.222 2.16a5.115 5.115 0 0 1-2.24 1.325c-.408.14-1.29.348-2.513.627l.883 4.252-2.445.558-.882-4.252-1.63.348.883 4.252-2.445.558-.882-4.252-.476.07-.95.209-3.191.697-.544-2.51 3.192-.696-2.513-12.408-3.19.697-.544-2.51 3.191-.696.95-.21.476-.07-.883-4.251 2.445-.558.882 4.252 1.63-.348-.883-4.252 2.445-.558.882 4.252c1.019-.21 1.834-.349 2.445-.349.747 0 1.426.07 2.037.349.679.279 1.222.627 1.697 1.185.475.558.815 1.185.95 1.952a3.586 3.586 0 0 1-.203 2.37A4.824 4.824 0 0 1 25.05 17.8c1.155.07 2.105.419 2.852 1.046a4.3 4.3 0 0 1 1.426 2.37zm-8.216-8.086c-.407.07-1.426.279-3.123.628l-2.105.418.815 4.043 2.376-.488c1.426-.28 2.309-.488 2.648-.628.611-.139 1.087-.488 1.358-.906.272-.418.408-.906.272-1.464-.136-.488-.34-.906-.747-1.185-.34-.278-.815-.348-1.494-.418zm4.414 8.783c-.136-.558-.34-.976-.68-1.255-.339-.348-.746-.488-1.29-.557-.543-.07-1.629.07-3.258.418l-2.92.627.95 4.67 3.395-.696c1.29-.28 2.105-.488 2.445-.628a2.67 2.67 0 0 0 1.154-.976c.272-.418.34-.976.204-1.603z"/></g></g></g></svg>