<svg xmlns="http://www.w3.org/2000/svg" width="38" height="40" viewBox="0 0 38 40"><g><g><g><path fill="#ffbc00" d="M38 19.787c0 10.807-8.507 19.567-19 19.567S0 30.594 0 19.787C0 8.981 8.507.22 19 .22s19 8.76 19 19.567z"/></g><g><path fill="#07062e" d="M27.55 23.38c0 .805-.186 1.543-.56 2.281-.31.739-.808 1.276-1.43 1.745-.622.403-1.368.672-2.3.806-.374 0-1.182.067-2.363.067v4.228h-2.301V28.28H17.04v4.228h-2.3V28.28H10.45v-2.483h2.985V13.647H10.45v-2.416h4.29V7.07h2.301v4.161h1.555V7.07h2.3v4.161c.933 0 1.742.067 2.24.134a5.14 5.14 0 0 1 1.74.739c.56.335.933.805 1.306 1.41.31.603.498 1.274.498 2.013 0 .805-.187 1.543-.622 2.215-.436.67-.995 1.14-1.741 1.476.995.269 1.803.806 2.363 1.544s.87 1.61.87 2.617zm-5.907-9.263c-.373-.067-1.306-.067-2.923-.067h-1.927v3.96h2.238c1.368 0 2.177 0 2.487-.067.56-.067 1.058-.268 1.368-.604.311-.336.498-.806.498-1.342 0-.537-.124-.94-.435-1.276-.25-.335-.684-.537-1.306-.604zm2.363 9.128c0-.47-.125-.94-.373-1.275a1.864 1.864 0 0 0-1.057-.805c-.436-.202-1.43-.269-2.985-.269h-2.736v4.564h3.171c1.181 0 1.99-.067 2.3-.134.498-.067.933-.336 1.244-.671.311-.403.436-.873.436-1.41z"/></g></g></g></svg>