<svg width="16" height="16" viewBox="0 0 16 16" fill="none" xmlns="http://www.w3.org/2000/svg">
<path d="M13.6569 2.34316C12.1459 0.832156 10.1369 0 8 0C5.86312 0 3.85413 0.832156 2.34313 2.34316C0.832156 3.85416 0 5.86312 0 8C0 10.1369 0.832156 12.1459 2.34313 13.6569C3.85413 15.1678 5.86312 16 8 16C10.1369 16 12.1459 15.1678 13.6569 13.6569C15.1678 12.1459 16 10.1369 16 8C16 5.86312 15.1678 3.85416 13.6569 2.34316ZM15.046 7.52231L13.2654 7.52459C13.2097 6.90238 13.0458 6.31094 12.7926 5.76912L14.3336 4.87769C14.733 5.68469 14.9826 6.57834 15.046 7.52231ZM13.8631 4.06681L12.322 4.95831C11.9703 4.46012 11.5348 4.02525 11.0362 3.67422L11.9257 2.13203C12.6901 2.645 13.3492 3.30316 13.8631 4.06681ZM8.46875 0.953438C9.41291 1.01562 10.3068 1.26406 11.1143 1.66244L10.2248 3.20456C9.68272 2.95206 9.09109 2.78891 8.46875 2.73397V0.953438ZM7.53125 0.953438V2.73397C6.89962 2.78972 6.29963 2.95694 5.75097 3.21591L4.85372 1.67838C5.6695 1.27069 6.57463 1.01644 7.53125 0.953438ZM4.04456 2.15188L4.94181 3.68941C4.445 4.04291 4.01194 4.48022 3.66275 4.98025L2.11725 4.09662C2.62744 3.33028 3.28297 2.66862 4.04456 2.15188ZM1.6505 4.90972L3.19609 5.79338C2.94569 6.33628 2.78478 6.92856 2.73219 7.55125L0.95175 7.558C1.01038 6.61338 1.25528 5.71847 1.6505 4.90972ZM0.955125 8.49553L2.73575 8.48875C2.79303 9.11072 2.95844 9.70178 3.21306 10.243L1.67438 11.1383C1.27281 10.3322 1.02087 9.43919 0.955125 8.49553ZM2.14678 11.9481L3.68563 11.0527C4.0385 11.5499 4.47522 11.9836 4.97478 12.3334L4.08919 13.8778C3.3235 13.3667 2.66259 12.7104 2.14678 11.9481ZM4.90169 14.3455L5.78728 12.8011C6.32997 13.0522 6.922 13.2138 7.54456 13.2672L7.54906 15.0477C6.60459 14.9879 5.71 14.7418 4.90169 14.3455ZM3.65044 8C3.65044 5.60162 5.60166 3.65047 8 3.65047C10.3983 3.65047 12.3495 5.60166 12.3495 8C12.3495 10.3983 10.3983 12.3496 8 12.3496C5.60166 12.3496 3.65044 10.3984 3.65044 8ZM8.48656 15.0454L8.48206 13.2648C9.10416 13.2083 9.69541 13.0437 10.2369 12.7898L11.1303 14.3296C10.3237 14.7301 9.43038 14.9809 8.48656 15.0454ZM11.9407 13.8582L11.0472 12.3182C11.5449 11.9659 11.9792 11.5298 12.3297 11.0307L13.8729 11.9183C13.3608 12.6833 12.7036 13.3433 11.9407 13.8582ZM12.7983 10.2188C13.0501 9.67638 13.2125 9.08453 13.2666 8.46209L15.0471 8.45984C14.9861 9.40416 14.7389 10.2984 14.3415 11.1063L12.7983 10.2188Z" fill="#AFABCA"/>
<path d="M9.40932 8.12339C9.35429 7.99958 9.27647 7.89433 9.17563 7.80755C9.07476 7.72089 8.95176 7.6483 8.80669 7.58992C8.66154 7.53152 8.49879 7.47761 8.31832 7.42801L8.14844 7.38555V6.66358C8.24748 6.67776 8.34566 6.70164 8.44307 6.73523C8.54035 6.76892 8.62888 6.80423 8.70851 6.84139C8.78813 6.87855 8.85357 6.91305 8.90491 6.94492C8.95619 6.9768 8.98719 6.99983 8.99782 7.01395L9.38004 6.29198C9.23141 6.20704 9.05622 6.12395 8.85451 6.04248C8.65279 5.96111 8.43688 5.90976 8.20688 5.88854V5.35239H7.8406V5.88854C7.67073 5.90629 7.51232 5.94429 7.36548 6.00267C7.21857 6.06104 7.09119 6.14161 6.98329 6.2442C6.87529 6.34689 6.78951 6.46983 6.72582 6.61314C6.6621 6.75645 6.63026 6.9202 6.63026 7.10417C6.63026 7.24576 6.65057 7.36961 6.69132 7.47576C6.73198 7.58192 6.79391 7.67573 6.87713 7.75711C6.96023 7.83855 7.06557 7.91023 7.19298 7.97211C7.32038 8.03408 7.47076 8.09155 7.64419 8.14464L7.89901 8.21895V8.92499C7.7716 8.90733 7.64769 8.87811 7.52741 8.83739C7.40707 8.79677 7.29913 8.7543 7.2036 8.70999C7.10804 8.66577 7.02926 8.6233 6.96738 8.58258C6.90541 8.54195 6.86735 8.51274 6.85326 8.49499L6.47107 9.25411C6.66216 9.38152 6.87716 9.48421 7.11604 9.56202C7.35491 9.63992 7.59644 9.68942 7.84066 9.71064V10.3317H8.20694V9.71596C8.37682 9.70883 8.53873 9.68227 8.69266 9.63633C8.8466 9.59036 8.98282 9.52221 9.10141 9.43196C9.21994 9.34171 9.3146 9.22583 9.38541 9.08427C9.45616 8.94277 9.4916 8.77105 9.4916 8.56933C9.4916 8.39599 9.46413 8.24733 9.40932 8.12339ZM7.89894 7.3112C7.77504 7.2723 7.68213 7.2272 7.62026 7.17586C7.55832 7.12458 7.52735 7.05467 7.52735 6.96617C7.52735 6.7822 7.65119 6.67951 7.89894 6.65826V7.3112ZM8.14844 8.93561V8.29861C8.27229 8.34108 8.37141 8.38802 8.44573 8.43927C8.52004 8.49061 8.55719 8.56227 8.55719 8.65427C8.55719 8.83127 8.42091 8.92502 8.14844 8.93561Z" fill="#AFABCA"/>
</svg>
