<svg xmlns="http://www.w3.org/2000/svg" width="18" height="18" viewBox="0 0 18 18"><defs><clipPath id="w5jva"><path fill="#fff" d="M.83 17.185V.815h16.34v16.37zM16.552 9l.43-1.139a.25.25 0 0 0-.038-.245l-.761-.95.057-1.216a.25.25 0 0 0-.113-.221l-1.017-.669-.321-1.174a.25.25 0 0 0-.176-.176l-1.174-.32-.669-1.018a.25.25 0 0 0-.22-.113l-1.217.057-.95-.761a.25.25 0 0 0-.245-.039L9 1.446l-1.139-.43a.25.25 0 0 0-.245.04l-.95.76L5.45 1.76a.25.25 0 0 0-.221.113L4.56 2.889l-1.174.321a.25.25 0 0 0-.176.176L2.89 4.56l-1.018.669a.25.25 0 0 0-.113.22l.057 1.217-.76.95a.25.25 0 0 0-.04.245L1.446 9l-.43 1.139a.25.25 0 0 0 .039.245l.761.95-.057 1.216a.25.25 0 0 0 .113.221l1.017.669.321 1.174a.25.25 0 0 0 .176.176l1.174.32.669 1.018a.251.251 0 0 0 .22.113l1.217-.057.95.761a.25.25 0 0 0 .245.039L9 16.554l1.139.43a.252.252 0 0 0 .245-.039l.95-.761 1.216.057a.25.25 0 0 0 .221-.113l.669-1.017 1.174-.321a.25.25 0 0 0 .176-.176l.32-1.174 1.018-.669a.25.25 0 0 0 .113-.22l-.057-1.217.761-.95a.25.25 0 0 0 .039-.245zm-.088 1.182l-.731.913a.25.25 0 0 0-.055.168l.055 1.168-.977.642a.25.25 0 0 0-.104.143l-.309 1.128-1.128.309a.25.25 0 0 0-.143.104l-.642.977-1.168-.055a.251.251 0 0 0-.168.055l-.913.73-1.093-.413a.25.25 0 0 0-.178 0l-1.093.414-.913-.731a.251.251 0 0 0-.168-.055l-1.168.055-.642-.977a.25.25 0 0 0-.143-.104l-1.128-.309-.309-1.128a.25.25 0 0 0-.104-.143l-.977-.642.055-1.168a.25.25 0 0 0-.055-.168l-.73-.913.413-1.093a.25.25 0 0 0 0-.178l-.414-1.093.731-.913a.25.25 0 0 0 .055-.168l-.055-1.168.977-.642a.25.25 0 0 0 .104-.143l.309-1.128 1.128-.309a.25.25 0 0 0 .143-.104l.642-.977 1.168.055a.25.25 0 0 0 .168-.055l.913-.73 1.093.413a.25.25 0 0 0 .178 0l1.093-.414.913.731a.25.25 0 0 0 .168.055l1.168-.055.642.977a.25.25 0 0 0 .143.104l1.128.309.309 1.128a.25.25 0 0 0 .104.143l.977.642-.055 1.168a.25.25 0 0 0 .055.168l.73.913-.413 1.093a.25.25 0 0 0 0 .178z"/></clipPath></defs><g><g><path fill="#afabca" d="M16.984 10.139a.25.25 0 0 1-.039.245l-.761.95.057 1.216a.25.25 0 0 1-.113.221l-1.017.669-.321 1.174a.25.25 0 0 1-.176.176l-1.174.32-.669 1.018a.25.25 0 0 1-.22.113l-1.217-.057-.95.761a.25.25 0 0 1-.245.039L9 16.554l-1.139.43a.25.25 0 0 1-.245-.039l-.95-.761-1.216.057a.251.251 0 0 1-.221-.113l-.669-1.017-1.174-.321a.25.25 0 0 1-.176-.176l-.32-1.174-1.018-.669a.25.25 0 0 1-.113-.22l.057-1.217-.761-.95a.25.25 0 0 1-.039-.245L1.446 9l-.43-1.139a.25.25 0 0 1 .04-.245l.76-.95L1.76 5.45a.25.25 0 0 1 .113-.221l1.017-.669.321-1.174a.25.25 0 0 1 .176-.176l1.174-.32.669-1.018a.25.25 0 0 1 .22-.113l1.217.057.95-.761a.25.25 0 0 1 .245-.039L9 1.446l1.139-.43a.25.25 0 0 1 .245.039l.95.761 1.216-.057a.25.25 0 0 1 .221.113l.669 1.017 1.174.321a.25.25 0 0 1 .176.176l.32 1.174 1.018.669a.25.25 0 0 1 .113.22l-.057 1.217.761.95a.25.25 0 0 1 .039.245L16.554 9zm-.933-1.05a.25.25 0 0 1 0-.178l.414-1.093-.731-.913a.25.25 0 0 1-.055-.168l.055-1.168-.977-.642a.25.25 0 0 1-.104-.143l-.309-1.128-1.128-.309a.25.25 0 0 1-.143-.104l-.642-.977-1.168.055a.25.25 0 0 1-.168-.055l-.913-.73-1.093.413a.25.25 0 0 1-.178 0l-1.093-.414-.913.731a.25.25 0 0 1-.168.055l-1.168-.055-.642.977a.25.25 0 0 1-.143.104l-1.128.309-.309 1.128a.25.25 0 0 1-.104.143l-.977.642.055 1.168a.25.25 0 0 1-.055.168l-.73.913.413 1.093a.25.25 0 0 1 0 .178l-.414 1.093.731.913a.25.25 0 0 1 .055.168l-.055 1.168.977.642a.25.25 0 0 1 .104.143l.309 1.128 1.128.309a.25.25 0 0 1 .143.104l.642.977 1.168-.055c.06-.003.12.016.168.055l.913.73 1.093-.413a.25.25 0 0 1 .178 0l1.093.414.913-.731a.251.251 0 0 1 .168-.055l1.168.055.642-.977a.25.25 0 0 1 .143-.104l1.128-.309.309-1.128a.25.25 0 0 1 .104-.143l.977-.642-.055-1.168a.25.25 0 0 1 .054-.168l.732-.913z"/><path fill="none" stroke="#afabca" stroke-miterlimit="20" stroke-width=".4" d="M16.984 10.139a.25.25 0 0 1-.039.245l-.761.95.057 1.216a.25.25 0 0 1-.113.221l-1.017.669-.321 1.174a.25.25 0 0 1-.176.176l-1.174.32-.669 1.018a.25.25 0 0 1-.22.113l-1.217-.057-.95.761a.25.25 0 0 1-.245.039L9 16.554l-1.139.43a.25.25 0 0 1-.245-.039l-.95-.761-1.216.057a.251.251 0 0 1-.221-.113l-.669-1.017-1.174-.321a.25.25 0 0 1-.176-.176l-.32-1.174-1.018-.669a.25.25 0 0 1-.113-.22l.057-1.217-.761-.95a.25.25 0 0 1-.039-.245L1.446 9l-.43-1.139a.25.25 0 0 1 .04-.245l.76-.95L1.76 5.45a.25.25 0 0 1 .113-.221l1.017-.669.321-1.174a.25.25 0 0 1 .176-.176l1.174-.32.669-1.018a.25.25 0 0 1 .22-.113l1.217.057.95-.761a.25.25 0 0 1 .245-.039L9 1.446l1.139-.43a.25.25 0 0 1 .245.039l.95.761 1.216-.057a.25.25 0 0 1 .221.113l.669 1.017 1.174.321a.25.25 0 0 1 .176.176l.32 1.174 1.018.669a.25.25 0 0 1 .113.22l-.057 1.217.761.95a.25.25 0 0 1 .039.245L16.554 9zm-.933-1.05a.25.25 0 0 1 0-.178l.414-1.093-.731-.913a.25.25 0 0 1-.055-.168l.055-1.168-.977-.642a.25.25 0 0 1-.104-.143l-.309-1.128-1.128-.309a.25.25 0 0 1-.143-.104l-.642-.977-1.168.055a.25.25 0 0 1-.168-.055l-.913-.73-1.093.413a.25.25 0 0 1-.178 0l-1.093-.414-.913.731a.25.25 0 0 1-.168.055l-1.168-.055-.642.977a.25.25 0 0 1-.143.104l-1.128.309-.309 1.128a.25.25 0 0 1-.104.143l-.977.642.055 1.168a.25.25 0 0 1-.055.168l-.73.913.413 1.093a.25.25 0 0 1 0 .178l-.414 1.093.731.913a.25.25 0 0 1 .055.168l-.055 1.168.977.642a.25.25 0 0 1 .104.143l.309 1.128 1.128.309a.25.25 0 0 1 .143.104l.642.977 1.168-.055c.06-.003.12.016.168.055l.913.73 1.093-.413a.25.25 0 0 1 .178 0l1.093.414.913-.731a.251.251 0 0 1 .168-.055l1.168.055.642-.977a.25.25 0 0 1 .143-.104l1.128-.309.309-1.128a.25.25 0 0 1 .104-.143l.977-.642-.055-1.168a.25.25 0 0 1 .054-.168l.732-.913z" clip-path="url(&quot;#w5jva&quot;)"/></g><g><g><text dominant-baseline="text-before-edge" style="font-kerning:normal" fill="#afabca" font-family="'Roboto','Roboto-Bold'" font-size="5" transform="translate(3 6)"><tspan style="font-kerning:normal">NEW</tspan></text></g></g></g></svg>