<svg xmlns="http://www.w3.org/2000/svg" width="16" height="16" viewBox="0 0 16 16"><g><g><path fill="#afabca" d="M16 5.74c0 1.996-1.007 5.884-7.748 9.501a.534.534 0 0 1-.504 0C1.007 11.624 0 7.736 0 5.74 0 3.072 1.706.69 4.267.69 6.144.69 7.384 1.715 8 2.393 8.616 1.715 9.856.69 11.733.69 14.243.69 16 3.01 16 5.74zm-1.067 0c0-2.027-1.214-3.983-3.2-3.983-2.156 0-3.268 1.76-3.28 1.779a.534.534 0 0 1-.906.001c-.547-.863-1.785-1.78-3.28-1.78-1.972 0-3.2 1.936-3.2 3.982 0 3.679 3.695 6.645 6.933 8.425 3.238-1.78 6.933-4.746 6.933-8.425z"/></g></g></svg>