<svg xmlns="http://www.w3.org/2000/svg" width="18" height="18" viewBox="0 0 18 18"><defs><clipPath id="jerya"><path fill="#fff" d="M.75 17.25V.75h16.5v16.5zM1 9c0 4.411 3.589 8 8 8s8-3.589 8-8-3.589-8-8-8-8 3.589-8 8zm.533 0c0-4.117 3.35-7.467 7.467-7.467 4.117 0 7.467 3.35 7.467 7.467 0 4.117-3.35 7.467-7.467 7.467-4.117 0-7.467-3.35-7.467-7.467z"/></clipPath></defs><g><g><g><path fill="#afabca" d="M3.154 9.234a.234.234 0 1 1 0-.468h.707a5.14 5.14 0 0 1 .115-.87l-.683-.183a.234.234 0 1 1 .12-.452l.683.183c.09-.282.204-.552.338-.81l-.614-.355a.234.234 0 1 1 .234-.405l.615.355c.158-.247.336-.48.534-.696L4.7 5.031a.234.234 0 0 1 .33-.33l.502.501c.216-.197.45-.375.696-.534l-.354-.614a.234.234 0 1 1 .405-.234l.354.614a5.1 5.1 0 0 1 .81-.338l-.183-.682a.234.234 0 1 1 .452-.122l.183.684c.283-.062.573-.101.87-.115v-.707a.234.234 0 1 1 .468 0v.707c.297.014.588.053.87.115l.184-.683a.233.233 0 1 1 .451.12l-.183.684a5.1 5.1 0 0 1 .81.337l.355-.614a.234.234 0 1 1 .405.234l-.355.615c.247.159.48.337.696.534l.501-.502a.234.234 0 0 1 .331.33l-.501.503c.197.215.375.449.533.696l.615-.356a.234.234 0 1 1 .234.405l-.614.355c.134.259.248.53.337.81l.683-.183a.234.234 0 1 1 .121.452l-.683.183c.062.283.1.573.114.87h.708a.234.234 0 0 1 0 .468h-.708a5.15 5.15 0 0 1-.114.87l.683.183a.234.234 0 0 1-.12.452l-.684-.183c-.09.282-.203.552-.338.81l.614.354a.234.234 0 0 1-.233.406l-.615-.355c-.159.247-.337.48-.534.696l.502.501a.234.234 0 1 1-.33.331l-.503-.501a5.178 5.178 0 0 1-.696.533l.356.615a.234.234 0 0 1-.405.234l-.355-.614a5.102 5.102 0 0 1-.81.337l.183.683a.234.234 0 1 1-.452.122l-.183-.684a5.13 5.13 0 0 1-.87.115v.707a.234.234 0 1 1-.468 0v-.707a5.133 5.133 0 0 1-.87-.115l-.183.683a.234.234 0 1 1-.452-.12l.183-.684a5.097 5.097 0 0 1-.81-.337l-.354.614a.233.233 0 0 1-.32.086.234.234 0 0 1-.085-.32l.354-.615a5.183 5.183 0 0 1-.696-.534l-.501.502a.233.233 0 0 1-.33 0 .234.234 0 0 1-.001-.33l.501-.502a5.176 5.176 0 0 1-.533-.696l-.614.355a.235.235 0 0 1-.32-.086.234.234 0 0 1 .085-.32l.614-.354a5.102 5.102 0 0 1-.338-.81l-.682.183a.234.234 0 0 1-.121-.452l.683-.183a5.13 5.13 0 0 1-.115-.87h-.707zM9 13.677A4.682 4.682 0 0 0 13.677 9 4.682 4.682 0 0 0 9 4.323 4.682 4.682 0 0 0 4.323 9 4.682 4.682 0 0 0 9 13.677z"/></g><g><path fill="#afabca" d="M6.184 8.296c.306 0 .563.197.66.47h.77a1.41 1.41 0 0 1 1.151-1.153v-.768a.703.703 0 1 1 .47 0v.768a1.41 1.41 0 0 1 1.152 1.152h.768a.703.703 0 1 1 .661.939.703.703 0 0 1-.66-.47h-.77a1.41 1.41 0 0 1-1.151 1.153v.768a.703.703 0 1 1-.939.661c0-.306.197-.563.47-.66v-.77a1.41 1.41 0 0 1-1.153-1.151h-.768A.702.702 0 0 1 5.48 9c0-.388.316-.704.704-.704zm5.632.939a.235.235 0 1 0 0-.47.235.235 0 0 0 0 .47zM9 5.949a.235.235 0 1 0 0 .47.235.235 0 0 0 0-.47zm0 6.102a.235.235 0 1 0 0-.47.235.235 0 0 0 0 .47zm0-2.112A.94.94 0 0 0 9 8.06.94.94 0 0 0 9 9.94zm-2.816-.704a.235.235 0 1 0 0-.47.235.235 0 0 0 0 .47z"/></g><g><path fill="#afabca" d="M9 1c4.411 0 8 3.589 8 8s-3.589 8-8 8-8-3.589-8-8 3.589-8 8-8zm0 15.467c4.117 0 7.467-3.35 7.467-7.467 0-4.117-3.35-7.467-7.467-7.467-4.117 0-7.467 3.35-7.467 7.467 0 4.117 3.35 7.467 7.467 7.467z"/><path fill="none" stroke="#afabca" stroke-miterlimit="20" stroke-width=".5" d="M9 1c4.411 0 8 3.589 8 8s-3.589 8-8 8-8-3.589-8-8 3.589-8 8-8zm0 15.467c4.117 0 7.467-3.35 7.467-7.467 0-4.117-3.35-7.467-7.467-7.467-4.117 0-7.467 3.35-7.467 7.467 0 4.117 3.35 7.467 7.467 7.467z" clip-path="url(&quot;#jerya&quot;)"/></g></g></g></svg>