<svg xmlns="http://www.w3.org/2000/svg" width="16" height="16" viewBox="0 0 16 16"><defs><clipPath id="uxmxa"><path fill="#fff" d="M-.2 16.2V-.2h16.4v16.4zM15.65 1.936a.314.314 0 0 0-.095-.226C15.34 1.5 14.647.626 14.399.307a.314.314 0 0 0-.39-.088l-2.458 1.235A8.781 8.781 0 0 0 9.08.317C7.705-.075 5.64-.286 3.392.808V.52A.314.314 0 0 0 3.038.21L.624.519A.314.314 0 0 0 .35.843l.254 5.529c.008.167.146.3.314.3l2.116.003a.314.314 0 0 0 .309-.376c-.03-.148-.058-.623.196-.855.236-.217.706-.23 1.359-.038a9.786 9.786 0 0 0 1.839.373c.118.011.228.018.331.021a10.102 10.102 0 0 0-2.337 3.234c-.903 1.964-1.219 4.211-.937 6.68.017.158.15.278.308.28.413.003 1.536.005 2.85.005 2.604 0 5.956-.006 6.007-.006a.315.315 0 0 0 .299-.409c-.007-.021-.686-2.186-.737-4.926-.03-1.602.159-3.081.56-4.395.5-1.63 1.33-3.01 2.47-4.103a.314.314 0 0 0 .098-.225zm-.75-.013c-1.107 1.132-1.92 2.528-2.418 4.157-.421 1.377-.619 2.922-.588 4.59.04 2.15.444 3.927.65 4.697-1.498.002-6.607.01-8.154.001-.215-2.244.091-4.285.912-6.07a9.427 9.427 0 0 1 2.306-3.136 5.67 5.67 0 0 1 .705-.543.32.32 0 0 0 .113-.434.308.308 0 0 0-.42-.113c-.038.016-.395.157-1.212.083a9.169 9.169 0 0 1-1.719-.35c-.888-.261-1.547-.202-1.96.177-.338.31-.413.752-.417 1.065l-1.479-.002-.227-4.94L2.764.877v.45a.314.314 0 0 0 .469.274C5.02.592 6.923.361 8.884.914c1.478.417 2.438 1.147 2.447 1.154a.314.314 0 0 0 .333.032L14.062.896c.21.267.576.725.837 1.027z"/></clipPath></defs><g><g><path fill="#afabca" d="M15.649 1.936a.314.314 0 0 1-.097.225c-1.14 1.093-1.972 2.473-2.47 4.103-.402 1.314-.59 2.793-.561 4.395.051 2.74.73 4.905.737 4.926a.314.314 0 0 1-.3.41c-.05 0-3.402.005-6.006.005-1.314 0-2.437-.002-2.85-.006a.314.314 0 0 1-.308-.278c-.282-2.47.034-4.717.937-6.68A10.102 10.102 0 0 1 7.068 5.8a5.906 5.906 0 0 1-.331-.02 9.786 9.786 0 0 1-1.84-.374c-.652-.192-1.122-.179-1.358.038-.254.232-.226.707-.196.855a.314.314 0 0 1-.308.376L.917 6.673a.314.314 0 0 1-.314-.3L.35.844A.314.314 0 0 1 .624.518l2.414-.31a.314.314 0 0 1 .354.312v.288C5.64-.286 7.705-.075 9.08.317a8.781 8.781 0 0 1 2.472 1.137L14.01.22a.314.314 0 0 1 .389.088c.248.32.941 1.194 1.155 1.403.06.06.095.14.095.226zm-.75-.013c-.261-.302-.626-.76-.837-1.027L11.664 2.1a.314.314 0 0 1-.333-.032c-.01-.007-.97-.737-2.447-1.154-1.961-.553-3.863-.322-5.651.687a.314.314 0 0 1-.469-.273v-.45l-1.773.227.227 4.94 1.48.002c.003-.313.078-.755.416-1.065.413-.379 1.072-.438 1.96-.177a9.169 9.169 0 0 0 1.72.35c.816.074 1.173-.067 1.21-.083a.308.308 0 0 1 .421.113.32.32 0 0 1-.113.434 5.67 5.67 0 0 0-.705.543c-.662.583-1.6 1.6-2.306 3.136-.82 1.785-1.127 3.826-.912 6.07 1.547.008 6.656.001 8.153-.001-.205-.77-.609-2.546-.649-4.696-.031-1.669.167-3.214.588-4.59.498-1.63 1.311-3.026 2.418-4.158z"/><path fill="none" stroke="#afabca" stroke-miterlimit="20" stroke-width=".4" d="M15.649 1.936a.314.314 0 0 1-.097.225c-1.14 1.093-1.972 2.473-2.47 4.103-.402 1.314-.59 2.793-.561 4.395.051 2.74.73 4.905.737 4.926a.314.314 0 0 1-.3.41c-.05 0-3.402.005-6.006.005-1.314 0-2.437-.002-2.85-.006a.314.314 0 0 1-.308-.278c-.282-2.47.034-4.717.937-6.68A10.102 10.102 0 0 1 7.068 5.8a5.906 5.906 0 0 1-.331-.02 9.786 9.786 0 0 1-1.84-.374c-.652-.192-1.122-.179-1.358.038-.254.232-.226.707-.196.855a.314.314 0 0 1-.308.376s0 0 0 0L.917 6.673a.314.314 0 0 1-.314-.3L.35.844A.314.314 0 0 1 .624.518l2.414-.31a.314.314 0 0 1 .354.312v.288C5.64-.286 7.705-.075 9.08.317a8.781 8.781 0 0 1 2.472 1.137L14.01.22a.314.314 0 0 1 .389.088c.248.32.941 1.194 1.155 1.403.06.06.095.14.095.226zm-.75-.013c-.261-.302-.626-.76-.837-1.027L11.664 2.1a.314.314 0 0 1-.333-.032c-.01-.007-.97-.737-2.447-1.154-1.961-.553-3.863-.322-5.651.687a.314.314 0 0 1-.469-.273v-.45l-1.773.227.227 4.94 1.48.002c.003-.313.078-.755.416-1.065.413-.379 1.072-.438 1.96-.177a9.169 9.169 0 0 0 1.72.35c.816.074 1.173-.067 1.21-.083a.308.308 0 0 1 .421.113.32.32 0 0 1-.113.434 5.67 5.67 0 0 0-.705.543c-.662.583-1.6 1.6-2.306 3.136-.82 1.785-1.127 3.826-.912 6.07 1.547.008 6.656.001 8.153-.001-.205-.77-.609-2.546-.649-4.696-.031-1.669.167-3.214.588-4.59.498-1.63 1.311-3.026 2.418-4.158z" clip-path="url(&quot;#uxmxa&quot;)"/></g></g></svg>